<?xml version="1.0" encoding="utf-8"?>
<!-- Generator: Adobe Illustrator 25.2.3, SVG Export Plug-In . SVG Version: 6.00 Build 0)  -->
<svg version="1.1" id="Capa_1" xmlns="http://www.w3.org/2000/svg" xmlns:xlink="http://www.w3.org/1999/xlink" x="0px" y="0px"
	 viewBox="0 0 355.5 418.9" style="enable-background:new 0 0 355.5 418.9;" xml:space="preserve">
<style type="text/css">
	.st0{fill:#FFFFFF;}
</style>
<g id="a">
</g>
<g id="b">
	<g id="c">
		<g id="d">
			<path class="st0" d="M335.7,220.3v90.8c0,2-0.5,2.6-2.6,2.6c-19.4-0.1-38.9-0.1-58.5,0c-2,0-2.6-0.6-2.6-2.6
				c0-48.7,0.1-97.5,0-146.2c0-13.8-1.6-27.4-5.7-40.6c-3.7-11.7-9.8-21.9-18.3-30.8C238,82.8,226.8,74,213.3,68.3
				c-9.2-3.9-18.9-6-28.9-6.6c-11.7-0.7-23.4,0.1-34.7,3.7c-11.4,3.6-21.7,9.3-30.7,17c-9.5,8.1-18.2,16.8-24.3,27.8
				c-5.9,10.7-8.8,22.5-10.5,34.5c-1.3,10.1-1.3,20.2-1.3,30.4v135.5c0,3.2,0.6,3-3,3H22.1c-1.6,0-2.5-0.1-2.5-2.1
				c0.2-49.6-0.3-99.3,0.5-148.9c0.1-9.8,0-19.8,1.4-29.5c0.9-7.2,2.7-14.3,5-21.1c3.7-10.6,7.3-21.3,13-31.2
				c15.6-27.2,37-48.6,64.8-63.2c26.6-13.9,55.2-19.4,85.3-17.2c20,1.5,39.1,6.7,57.3,15.1c12,5.5,22.5,13,32.4,21.5
				c17.3,14.8,31.4,32.2,40.9,53c5.2,11.4,9.2,23.4,12.1,35.8c2.9,12.7,2.3,25.7,2.8,38.5C335.9,184.2,335.7,204.4,335.7,220.3
				L335.7,220.3z"/>
			<path class="st0" d="M146.7,232.6v-78.6c0-1.9,0.4-2.4,2.3-2.3c19.2,0.1,38.5,0.1,57.8,0c1.7,0,2.1,0.4,2.1,2.1v157.5
				c0,1.8-0.3,2.3-2.2,2.3c-19.2-0.1-38.3-0.1-57.6,0c-2,0-2.4-0.6-2.4-2.6C146.7,284.9,146.7,258.8,146.7,232.6L146.7,232.6z"/>
		</g>
		<g id="e">
			<path class="st0" d="M3.9,394.7c0,1.4-0.6,1.7-1.7,1.6c-1,0-2.1,0.1-2.1-1.5c0.2-6.4-0.5-12.7,0.2-19c0.7-5.4,3.6-8.9,8.8-10.2
				c5-1.1,9.9-0.6,13.5,3.8c0.7,0.9,1,1.6,2.1,0.2c3.1-4,8.9-5.6,14.1-4c5.1,1.6,8.3,5.4,8.6,11c0.3,6,0.1,12.1,0.2,18.1
				c0,1.5-0.9,1.5-1.9,1.5s-1.8-0.1-1.8-1.5v-14.9c0-2.2-0.1-4.6-1.1-6.6c-1.9-3.9-5.7-5.4-10.9-4.4c-3.7,0.8-6.1,3.8-6.3,8.2
				c-0.1,5.8-0.1,11.5,0,17.3c0,1.4-0.3,1.9-1.8,2c-1.5,0-1.9-0.5-1.9-1.9c0.1-5,0.1-10.1,0-15.1c0-3.5-0.7-6.8-3.8-9
				c-3-2.1-6.4-2-9.6-0.8c-3.1,1.2-4.5,3.9-4.7,7c-0.2,3-0.1,9-0.1,9S3.9,391.8,3.9,394.7L3.9,394.7z"/>
			<path class="st0" d="M112.5,370.5v-24.9c0-1.8,0.7-2,2.2-2c1.6,0,1.5,1,1.5,2.1V382c-0.1,6.6-3.9,12.2-9.7,14.2
				c-6.6,2.3-13.5,0.7-17.9-4c-6.1-6.7-5.7-23,7.2-26.3c5.8-1.5,11.3-0.7,15.6,4.1c0.2,0.2,1.1,1.4,1.1,1.4L112.5,370.5L112.5,370.5
				z M88.4,381.1c-0.1,7.8,4.5,12.7,11.7,12.7c7.4,0.1,12.2-4.8,12.3-12.4c0.1-7.8-4.6-12.9-11.9-12.9
				C93.1,368.5,88.6,373.4,88.4,381.1z"/>
			<path class="st0" d="M192.7,391.5v25.6c0,1.4-0.3,1.8-1.8,1.8c-1.1,0-1.9,0-1.9-1.6c0.1-12.6-0.1-25.3,0.1-37.8
				c0.1-8.2,6.8-14.1,15.3-14.1c8.6,0,15.2,5.8,15.8,14.1c0.6,8.9-3,15.1-10.5,17.2C203.3,398.5,197.7,397.1,192.7,391.5
				L192.7,391.5z M204.8,368.9c-7.4,0-12.1,4.7-12.1,12.2c0,8.2,4.5,13,11.9,13c7.4,0,11.9-4.8,11.9-12.6
				C216.8,373.7,212.2,368.9,204.8,368.9L204.8,368.9z"/>
			<path class="st0" d="M241.4,382.2c-3.9,0-7.7,0.1-11.6,0c-1.6,0-2.1,0.2-1.8,2c0.7,4.4,2.8,7.6,6.9,8.9c4.6,1.5,9.1,1.4,13-2
				c0.9-0.8,1.6-1.4,2.8-0.6c1.2,0.8,1.6,1.2,0.4,2.3c-3.7,3.8-8.3,4.8-13.2,4.4c-9.6-0.9-15.1-8.4-13.6-18.9
				c1.1-8.7,7.6-13.5,17.3-13c7.8,0.5,13.5,6.7,13.8,14.8c0,1.6-0.4,2-2,1.9C249.3,382.1,245.3,382.2,241.4,382.2L241.4,382.2z
				 M239.7,378.9c3.4,0,6.7-0.1,10.1,0c1.6,0,1.8-0.6,1.5-1.9c-1.4-5.2-5.9-8.6-11.7-8.4c-5.7,0.2-9.6,3-11.1,7.8
				c-0.4,1.6-0.4,2.6,1.7,2.5C233.2,378.8,236.4,378.9,239.7,378.9L239.7,378.9z"/>
			<path class="st0" d="M139.3,382.2c-3.9,0-7.7,0.1-11.6,0c-1.9-0.1-2.1,0.7-1.8,2.2c1.1,6.7,6.4,10.4,13.6,9.4
				c2.4-0.3,4.9-1,6.6-3c1.4-1.5,2.6-0.5,3.4,0.3c1,1-0.3,1.7-0.9,2.2c-4.4,4.2-12.5,5.2-18.4,2.3c-6-2.9-8.8-8.8-8.1-17
				c0.7-7,5.2-12,12.2-13.2c7.4-1.4,14.3,1.8,17.3,7.7c1.1,2.2,1.5,4.7,1.7,7.2c0.1,1.4-0.4,1.8-1.8,1.7
				C147.5,382.1,143.3,382.2,139.3,382.2L139.3,382.2z M137.7,378.9c3.4,0,6.7-0.1,10.1,0c1.7,0.1,1.8-0.7,1.5-1.9
				c-1.7-5.6-6.3-8.8-12.3-8.3c-5.8,0.5-9.6,3.5-10.7,8.3c-0.3,1.4-0.1,2,1.5,2C131,379,134.4,379,137.7,378.9L137.7,378.9z"/>
			<path class="st0" d="M351.3,391.5c-3,3.8-6.8,5.6-11.3,5.8c-8.6,0.5-15.1-5.4-16-14.4c-0.7-7.2,2.9-13.6,9-16.2
				c6.6-2.8,14.3-1.1,18.7,3.9c2.6,2.9,3.5,6.4,3.6,10.1c0.1,4.7,0,9.4,0.1,14c0,1.4-0.5,1.8-1.8,1.8c-1.4,0-2.1-0.2-2-1.8
				C351.8,393.7,351.9,392.7,351.3,391.5L351.3,391.5z M327.7,382.4c0,3.7,1.5,7.8,5.8,10.1c4.2,2.2,8.7,2.1,13-0.3
				c4.6-2.7,6.6-9.8,4.6-15.6c-0.8-2.5-2.1-4.7-4.5-6c-4.2-2.5-8.7-2.6-13-0.3C329.3,372.4,327.7,376.6,327.7,382.4L327.7,382.4z"/>
			<path class="st0" d="M307.5,365.4c4.2,0.1,8,1.2,10.4,5.1c0.5,0.8,1.4,1.7,0,2.3c-1,0.6-1.9,0.8-2.8-0.5c-3-3.9-10-5-14-2.3
				c-1.7,1.1-2.3,2.7-2.2,4.7c0.1,1.9,1.4,2.7,2.8,3.2c2.1,0.9,4.5,1.4,6.7,1.8c2.3,0.5,4.7,1.2,6.7,2.3c4.6,2.6,5,8.8,1.1,12.2
				c-4.6,3.8-13.9,3.8-18.3,0c-0.9-0.7-1.6-1.6-2-2.6c-0.3-0.8-1-1.6,0.2-2.2c0.9-0.5,1.7-0.9,2.6,0.3c3.2,4.1,9.6,5.2,14.2,2.6
				c3.1-1.9,3.2-5.9,0-7.8c-2-1.1-4.2-1.5-6.5-1.9c-2.6-0.6-5.1-0.9-7.5-2.2c-4.9-2.8-5.2-9.5-0.6-12.7
				C301,366,304.2,365.3,307.5,365.4L307.5,365.4z"/>
			<path class="st0" d="M169.2,365.3c5.7,0,9.5,1.1,11.9,4.9c0.6,0.8,1.5,1.8,0.2,2.6c-1,0.7-2,0.8-2.9-0.6
				c-2.8-3.9-10.1-4.8-14.1-2c-1.7,1.1-2.1,2.8-2,4.8c0.1,1.8,1.4,2.5,2.7,3c2.1,0.9,4.5,1.4,6.7,1.8c2.3,0.5,4.7,1.1,6.8,2.3
				c4.6,2.7,5,9,0.9,12.4c-4.6,3.7-13.6,3.7-18.2-0.1c-0.9-0.7-1.6-1.6-2-2.5c-0.3-0.8-0.9-1.6,0.2-2.2c0.9-0.5,1.8-0.9,2.6,0.3
				c2.9,4.7,9.9,4.7,14,2.7c1.6-0.8,2.4-2.1,2.6-4c0.1-1.9-1-3.1-2.6-4c-2-1.1-4.2-1.4-6.5-1.9c-2.4-0.6-4.9-1-7.3-2.2
				c-5.4-2.6-4.7-10.1-0.4-12.9C164.6,366.1,167.5,365.3,169.2,365.3L169.2,365.3z"/>
			<path class="st0" d="M260.5,386c0.2-3-0.3-6.6,0.5-10.2c1.2-5.5,4.6-8.7,10-10.2c6.5-1.7,13.5,1.1,16.4,6.5
				c1.2,2.5,1.8,5.1,1.8,7.8c0.1,4.8,0,9.6,0,14.4c0,1.5-0.5,1.9-1.9,1.9c-1.5,0-1.9-0.5-1.9-1.9c0.1-4.7,0.1-9.5,0-14.2
				c-0.1-3.9-0.8-7.6-4.5-9.8c-7.3-4.7-16.2-0.3-16.6,8.2c-0.3,5.1-0.1,10.4-0.1,15.5c0,1.5-0.2,2.2-2,2.2c-1.8,0-1.8-1-1.7-2.2
				C260.6,391.6,260.5,389.1,260.5,386L260.5,386z"/>
			<path class="st0" d="M55.1,381.4v-13.3c0-1.2,0.3-1.8,1.7-1.8c1.5,0,1.9,0.3,1.9,1.8v26.5c0,1.6-0.6,1.8-2,1.8s-1.7-0.7-1.7-1.9
				C55.1,390.1,55.1,385.8,55.1,381.4L55.1,381.4z"/>
			<path class="st0" d="M53.8,356.7c0-1.9,1.2-3.2,3-3.2s3.1,1.5,3.1,3.2s-1.5,3.1-3.1,3.1C55,359.8,53.8,358.6,53.8,356.7z"/>
		</g>
	</g>
</g>
</svg>
