<?xml version="1.0" encoding="UTF-8"?><svg xmlns="http://www.w3.org/2000/svg" xmlns:xlink="http://www.w3.org/1999/xlink" viewBox="0 0 548.19 698"><defs><style>.ac{fill:#e26463;}.ad{fill:#57575d;}.ae{fill:#fff;}.af{fill:#f9cca9;}.ag{fill:#9f9fa5;}.ah{fill:#d9dae2;}.ai{fill:#3b2c6c;}.aj{fill:#e1062c;}.ak{fill:#d0b66c;}.al{fill:#e2c979;}.am{fill:#a7abbc;}.an{fill:#d8213c;}.ao{fill:#e9eaf3;}.ap{fill:#dc1336;}.aq{fill:#e7bc9d;}.ar{fill:#e1062b;}.as{fill:#b41a32;}.at{fill:#232631;}.au{fill:#62549f;}</style><symbol id="a" viewBox="0 0 41.77 75.64"><g id="b"><path class="ak" d="M41.77,58.19v17.08c0,.38-.06,.44-.34,.26-2.57-1.7-5.14-3.39-7.73-5.06-.27-.17-.34-.33-.34-.71,0-9.17,.01-18.34,0-27.52,0-2.59-.21-5.29-.75-8.13-.49-2.53-1.3-4.98-2.42-7.39-1.33-2.87-2.81-5.5-4.6-7.74-1.21-1.53-2.5-2.77-3.81-3.74-1.55-1.14-3.09-2-4.58-2.3-1.51-.31-2.87-.13-4.06,.54-1.26,.69-2.41,1.58-3.21,3.14-.78,1.51-1.17,3.46-1.39,5.59-.18,1.78-.18,3.69-.18,5.61v25.5c0,.61,.07,.62-.4,.31L.32,48.65c-.21-.14-.32-.23-.32-.61,.03-9.32-.04-18.71,.06-27.99,.01-1.84,0-3.72,.18-5.44,.12-1.27,.35-2.46,.67-3.54,.49-1.68,.96-3.39,1.71-4.75C4.68,2.56,7.51,.37,11.19,.04c3.52-.31,7.3,1.12,11.27,4.13,2.64,2,5.83,4.43,8.24,7.58,1.58,2.06,2.97,4.38,4.28,6.84,2.29,4.28,4.15,8.78,5.41,13.51,.69,2.6,.55,5.41,.93,7.99,.38,2.65,.31,5.04,.37,7.48,.11,3.84,.08,7.6,.08,10.61Z"/><path class="ak" d="M16.79,44.17v-14.79c0-.36,.06-.42,.31-.24,2.54,1.68,5.08,3.35,7.64,5,.22,.15,.28,.27,.28,.58v29.65c0,.34-.04,.41-.29,.25-2.54-1.68-5.07-3.34-7.61-4.98-.27-.17-.32-.32-.32-.7,0-4.93,0-9.85,0-14.77Z"/></g></symbol><symbol id="c" viewBox="0 0 316.03 313.67"><g id="d"><path class="aj" d="M316,220.33v90.76c0,2.01-.45,2.57-2.57,2.57-19.44-.11-38.9-.11-58.46,0-2.01,0-2.57-.56-2.57-2.57,0-48.74,.11-97.46,0-146.2,0-13.75-1.57-27.39-5.7-40.57-3.69-11.74-9.83-21.91-18.34-30.85-10.06-10.62-21.24-19.44-34.77-25.16-9.16-3.91-18.88-6.03-28.85-6.59-11.74-.67-23.36,.11-34.65,3.69-11.41,3.58-21.69,9.27-30.74,16.99-9.5,8.05-18.23,16.77-24.26,27.83-5.92,10.73-8.82,22.46-10.51,34.54-1.35,10.06-1.35,20.23-1.35,30.4v135.47c0,3.24,.56,3.02-3.02,3.02H2.45c-1.57,0-2.45-.11-2.45-2.12,.22-49.62-.34-99.26,.45-148.88,.11-9.83,0-19.78,1.35-29.5,.9-7.16,2.68-14.31,5.04-21.13,3.69-10.62,7.27-21.35,12.96-31.19,15.64-27.16,37-48.63,64.83-63.15C111.23,3.83,139.85-1.75,169.91,.48c20.01,1.46,39.11,6.71,57.34,15.1,11.95,5.47,22.46,12.96,32.41,21.47,17.33,14.76,31.41,32.2,40.91,52.97,5.25,11.41,9.16,23.36,12.06,35.76,2.9,12.74,2.34,25.7,2.79,38.46,.8,20.01,.58,40.12,.58,56.1Z"/><path class="ar" d="M127,232.64v-78.58c0-1.89,.45-2.45,2.34-2.34,19.22,.11,38.46,.11,57.79,0,1.68,0,2.12,.45,2.12,2.12v157.5c0,1.78-.34,2.34-2.23,2.34-19.22-.11-38.34-.11-57.56,0-2.01,0-2.45-.56-2.45-2.57,0-26.17,0-52.32,0-78.47Z"/></g></symbol></defs><g id="e"/><g id="f"><g id="g"><g id="h"><g id="i"><path class="al" d="M461.99,489.86c6-2.94,11.77-6.28,17.38-9.9,2.13-1.17,4.36-2.17,6.35-3.55,2.49-1.73,4.87-2.41,7.52-.51,6.62,4.65,13.95,8.1,20.8,12.37,1.07,.67,2.13,1.34,3.2,2.01,0,1.58-1.22,2.09-2.34,2.73-6.86,3.9-13.64,7.95-20.6,11.67-3.55,1.9-6.11,3.93-5.13,8.48,.36,1.71-.1,2.72-2.24,1.41-4.75-2.9-9.56-5.74-14.52-8.26-3.05-1.55-5.57-4.26-9.28-4.46-1.2-1.52-2.99-2.73-2.63-5.06,.61-2.29-.84-5.03,1.51-6.93Z"/><path class="ad" d="M462.66,525.34c8.62,4.9,17.25,9.8,25.87,14.7,.02,.12,1.56,.08,1.58,.2s-.98,.65-1.51,1.34-2.95,2.02-5.25,.69c-8.19-4.72-16.38-9.41-24.76-14.22,1.13-1.54,2.73-1.94,4.07-2.71Z"/><path class="al" d="M463.22,501.93c4.55,4.01,10.27,6.11,15.29,9.37,.97,.63,1.92,1.38,2.99,1.73,7.01,2.25,8.72,7.27,7.75,14-.62,4.3,.73,8.74-.72,13.01-8.62-4.9-17.25-9.8-25.87-14.7,0-6.72-.03-13.44,.02-20.15,0-1.08-.53-2.32,.54-3.26Z"/><path class="ak" d="M462.6,501.25c3.7,.2,6.73,3.51,9.79,5.06,4.96,2.52,9.77,5.36,14.52,8.26,2.15,1.31,2.61,.3,2.24-1.41-.97-4.56,1.58-6.58,5.13-8.48,6.96-3.72,13.74-7.77,20.6-11.67,1.12-.64,2.34-1.14,2.34-2.73,1.51,.15,1.48,1.29,1.36,2.32-.38,3.18,1.2,6.65-1.68,9.51-.6,.6-.21,2.23-.21,3.38-.01,5.8-.02,11.6,0,17.4,0,1.31-.02,2.45-1.41,3.24-8.45,4.8-16.37,9.09-24.81,13.91-.36,.21-.53,.32-.99,.36-.27,.05-.93-.12-.97-.36,1.45-4.28,.1-8.72,.72-13.01,.97-6.73-.9-10.72-7.92-12.97-1.07-.34-2.03-1.1-2.99-1.73-5.01-3.26-11.23-5.3-15.78-9.3l.04-1.78Z"/></g><g id="j"><path class="al" d="M478.53,528.87c7.37-3.61,14.46-7.71,21.35-12.17,2.61-1.44,5.36-2.67,7.8-4.36,3.06-2.12,5.98-2.97,9.24-.63,8.13,5.71,17.14,9.95,25.55,15.2,1.31,.82,2.62,1.65,3.93,2.47,0,1.94-1.5,2.57-2.88,3.35-8.43,4.79-16.76,9.77-25.31,14.34-4.37,2.33-7.5,4.83-6.31,10.42,.45,2.1-.12,3.34-2.76,1.73-5.84-3.56-11.75-7.05-17.84-10.15-3.75-1.9-6.85-5.24-11.4-5.48-1.48-1.86-3.67-3.35-3.24-6.21,.75-2.81-1.04-6.18,1.86-8.52Z"/><path class="ad" d="M479.35,572.46c10.6,6.02,21.19,12.04,31.79,18.06,.02,.15,1.92,.1,1.94,.25s-1.2,.8-1.86,1.64-3.62,2.48-6.45,.85c-10.06-5.79-20.13-11.57-30.42-17.47,1.39-1.89,3.36-2.38,5-3.33Z"/><path class="al" d="M480.04,543.7c5.59,4.92,12.62,7.51,18.78,11.51,1.19,.77,2.36,1.7,3.68,2.12,8.62,2.77,10.71,8.93,9.52,17.2-.76,5.28,.9,10.73-.88,15.99-10.6-6.02-21.19-12.04-31.79-18.06,0-8.25-.04-16.51,.03-24.76,.01-1.33-.65-2.86,.66-4Z"/><path class="ak" d="M479.28,542.86c4.55,.25,8.27,4.32,12.02,6.22,6.1,3.09,12,6.58,17.84,10.15,2.64,1.61,3.2,.37,2.76-1.73-1.19-5.6,1.94-8.09,6.31-10.42,8.55-4.57,16.88-9.55,25.31-14.34,1.38-.78,2.88-1.41,2.88-3.35,1.85,.19,1.82,1.59,1.67,2.85-.47,3.91,1.47,8.17-2.06,11.69-.74,.73-.25,2.74-.26,4.16-.02,7.13-.02,14.25,0,21.38,0,1.61-.03,3.01-1.74,3.98-10.38,5.9-20.11,11.17-30.48,17.09-.45,.26-.65,.4-1.21,.45-.34,.06-1.15-.15-1.19-.45,1.78-5.25,.12-10.71,.88-15.99,1.19-8.27-1.11-13.17-9.73-15.94-1.32-.42-2.49-1.35-3.68-2.12-6.16-4.01-13.8-6.51-19.39-11.43l.05-2.18Z"/></g><g id="k"><path id="l" class="ad" d="M282.11,413.19c2.22,2.82,3.88,6,6.22,8.77,5.28,6.24,12.57,9.46,19.36,13.41,20.27,11.79,40.59,23.49,60.89,35.23,15.17,8.77,30.34,17.56,45.53,26.31,.77,.45,35.5-3.23,36.38-2.97-17.24,30.02-29.12,17.37-35.08,14.9-17.74-10.18-35.49-20.34-53.21-30.53-28.91-16.62-57.8-33.28-86.73-49.88-2.5-1.43-4.43-3.19-4.39-6.17,.04-2.92,2.18-4.42,4.58-5.61,2.18-1.08,4.3-2.3,6.45-3.46Z"/><g id="m"><path class="am" d="M305.57,1.47c22.99,13.33,46.02,26.6,69.04,39.88,20.11,11.6,40.17,23.28,60.33,34.78,15.76,8.99,23.17,23.09,23.31,40.52,.41,49.81,.14,99.63,.15,149.44,0,56.33,.08,204.84,.08,205.92s.88,12.58-2.4,16c-1.9,1.98-7.89,9.2-14.32,12.84,0-105.53,7.43-271.86,7.43-377.4,0-3.96-.38-7.91-1.41-11.72-3.2-11.86-8.45-22.62-19.47-29.03-43.45-25.29-87.03-50.35-130.58-75.47-3.34-1.93-8.56-3.19-12.62-2.38,1.93-1.18,5.4-3.1,7.52-3.89,6.24-2.31,12.42,.2,12.93,.5Zm146.49,184.79c0,2.44-.04,4.41,.01,6.37,.03,1.09-.4,2.61,1.12,2.91,1.75,.34,1.78-1.47,2.3-2.51,.29-.58,.3-1.34,.3-2.02,.02-4.39,.03-8.78,0-13.17,0-.99,.27-2.37-1.18-2.46-1.15-.07-1.62,1.05-1.99,2.08-1.11,3.04-.28,6.19-.56,8.8Zm3.75-26.95c0-2.46,.01-4.44,0-6.42-.01-1.24,.27-3-1.21-3.23-1.47-.23-1.82,1.48-2.16,2.71-.18,.66-.35,1.36-.35,2.04-.03,4.31-.03,8.61-.01,12.92,0,1.03-.16,2.28,1.27,2.48,1.37,.19,1.66-.96,2-1.98,.99-2.96,.18-6.01,.47-8.52Z"/><path class="at" d="M449.2,440.04c0-105.53,0-211.06,0-316.59,0-3.96-.38-7.91-1.41-11.72-3.2-11.86-8.45-22.62-19.47-29.03-43.45-25.29-87.03-50.35-130.58-75.47-3.34-1.93-4.29-2.68-9.04-2.94-1.39-.24-4.36,.62-5.35,1.43-4.36,3.57-6.79,8.15-6.84,13.83-.06,7.77-.02,15.54-.02,23.31,3.09-2.32,6.17-4.65,9.26-6.97,.03-3.11-.15-6.25,.56-9.36,1.41-6.16,5.63-7.76,11.44-5.36,1.78,.74,3.12,.87,5,2.14,5.38,2.31,10.3,5.44,15.23,8.54,5.28,2.73,10.46,5.62,15.4,8.94,5.15,2.91,10.3,5.81,15.45,8.72,5.05,3.03,10.09,6.06,15.14,9.09,5.01,2.69,10.11,5.23,14.81,8.45,5.54,2.64,10.78,5.82,15.93,9.14,5.06,2.54,9.97,5.35,14.67,8.52,5.28,2.47,10.2,5.6,15.17,8.62,.93,.66,1.86,1.33,2.8,1.99,7.05,5.52,10.82,12.84,11.78,21.66,.16,1.5,.1,3.02,.1,4.53,0,104.25,0,208.49,0,312.74,.05,16.48-1.85,39.19-3.07,49.05-.72,5.8-15.38-1.39-20.33-3.9-7.33-4.22-14.66-8.43-21.99-12.65-20.04-11.53-40.08-23.05-60.11-34.59-.28-.16-.49-.45-.73-.69-10.15-5.58-20.27-11.23-30.05-17.44-9.41-4.65-14.9-12.21-16.72-22.51-.13-.7-.27-1.41-.4-2.11-.06-.92-.16-1.85-.16-2.77,0-102.35,0-204.69,0-307.04,0-.81,.07-1.62,.11-2.43-4-3.02-7.04-6.76-8.61-11.59-.45,.59-.9,1.18-1.35,1.76,1.03,1.07,.64,2.42,.64,3.66,.02,71.08,.02,142.16,0,213.23,0,1.33,0,2.26,0,4.24,0,2.67-.28,5.55-.12,8.48,.15,2.86-.04,5.75-.08,8.62,.05,19.97,.1,39.93,.15,59.9,.02,6.61,.03,13.22,.08,19.83,.04,5.19-.22,10.37,1.07,15.53,1.08,4.31,3.23,8.16,4.53,12.35,2.22,2.82,3.88,6,6.22,8.77,5.28,6.24,12.57,9.46,19.36,13.41,20.27,11.79,40.59,23.49,60.89,35.23,13.36,7.72,26.71,15.45,40.08,23.16h0s.08,.05,.12,.07c1.78,1.03,3.56,2.06,5.34,3.08,.66,.38,1.46,.51,2.22,.71,39.83,18.29,33.08-15.13,32.86-57.57Z"/></g><g id="n"><path id="o" class="ae" d="M425.57,93.71c8.52,6.12,12.62,14.44,13.59,23.26,.16,1.5,.1,3.02,.1,4.53,0,104.25,0,208.49,0,312.74,0,1.39,.05,2.79,.08,4.18,0,14.87,.26,43.2-2.55,46.79-2.81,3.58-8.94-.24-16.86-3.52-1.3-.72-1.87-1.03-2.58-1.44-42.93-24.23-83.39-47.36-114.36-66.22-9.41-4.65-14.9-12.21-16.72-22.51-.22-.73-.31-1.52-.4-2.11-.06-.92-.16-1.85-.16-2.77,0-102.35,0-204.69,0-307.04l-.02-48.14c.29-18.68,13.25-10.51,25.53-3.78l114.36,66.04Z"/><g id="p"><path class="ao" d="M303.05,61.12c0,26.54-.08,78.07,.06,104.61,.03,6.76,1.29,13.48,7.56,17.45,7.45,4.72,15.23,8.89,22.88,13.3,15.78,9.11,31.57,18.21,47.35,27.33,9.45,5.46,18.83,11.03,28.33,16.4,4.95,2.8,8.72,.56,9.07-5.13,.06-.93,.01-1.86,.01-2.79,0-31.42,0-62.85,.02-94.27,0-1.45-.53-9.59,.7-10.87-7.87-4.6-115.96-66.01-115.96-66.01Z"/><path class="ah" d="M418.4,478.04v2.81c-8.17-4.7-16.35-9.4-24.52-14.11-20.04-11.52-40.08-23.05-60.11-34.59-.29-.16-.49-.45-.74-.68-10.15-5.58-20.26-11.23-30.05-17.44,.03-17.45,.06-34.89,.07-52.34,0-2.44,.11-4.83,.62-7.25,1.02-4.87,3.57-6.35,8-3.99,5.21,2.78,10.26,5.88,15.38,8.84,15.87,9.16,31.74,18.32,47.61,27.48,12.05,6.97,24.23,13.72,36.1,20.99,5.85,3.58,7.44,9.89,7.49,16.37,.13,16.63,.03,33.26,.06,49.89,.01,1.36,.09,3.37,.09,4.02Z"/><path class="ao" d="M418.29,329.21c0,17.81,0,35.62,0,53.43,0,1.51,.03,2.99-.51,4.47-1.33,3.68-4.15,4.99-7.59,3.07-8.61-4.82-17.14-9.78-25.69-14.71-15.79-9.11-31.56-18.24-47.35-27.35-8.35-4.81-16.73-9.57-25.07-14.4-6.99-4.04-8.94-10.82-8.97-18.14-.14-35.85-.07-71.71-.05-107.56,0-2.86,.35-5.9,2.95-7.44,2.7-1.6,5.3,.07,7.78,1.5,14.66,8.5,29.37,16.92,44.05,25.4,13.97,8.07,27.93,16.16,41.9,24.25,2.31,1.34,4.53,2.86,6.95,3.98,8.33,3.83,11.55,10.69,11.59,19.37,.08,18.04,.02,36.09,.02,54.13Z"/><g id="q"><g id="r"><path class="ap" d="M320.11,314.73c0,.4-.12,.44-.36,.27-.21-.12-.45-.22-.45-.69,.05-1.88-.11-3.87,.05-5.65,.14-1.52,.75-2.24,1.86-1.98,1.06,.27,2.1,1.03,2.85,2.76,.14,.35,.21,.59,.45,.32,.66-.83,1.89-.6,2.97,.49,1.08,1.09,1.75,2.59,1.81,4.31,.07,1.84,.02,3.62,.05,5.44,0,.44-.19,.33-.4,.21s-.38-.25-.38-.65v-4.44c0-.67-.02-1.38-.24-2.1-.4-1.4-1.2-2.28-2.29-2.61-.78-.21-1.3,.4-1.32,1.69-.02,1.72-.02,3.43,0,5.18,0,.4-.07,.53-.38,.39-.31-.18-.4-.36-.4-.79,.02-1.49,.02-2.99,0-4.51,0-1.04-.14-2.12-.8-3.16-.64-.99-1.34-1.36-2.03-1.39-.66,0-.94,.63-.99,1.54-.05,.87-.01,2.68-.01,2.68,0,0-.02,1.84-.02,2.71Z"/><path class="ap" d="M343.01,320.52v-7.45c0-.53,.14-.52,.47-.33s.31,.48,.31,.81v10.85c-.02,1.96-.83,3.17-2.05,3.07-1.39-.09-2.85-1.42-3.77-3.35-1.3-2.74-1.2-7.56,1.51-6.99,1.23,.26,2.38,1.15,3.3,3.11,.05,.09,.23,.53,.23,.53v-.27Zm-5.06,.29c-.02,2.33,.94,4.34,2.48,5.22,1.56,.92,2.57,.02,2.59-2.23,.02-2.33-.97-4.39-2.52-5.27-1.56-.89-2.52,0-2.55,2.29Z"/><path class="ap" d="M359.94,336.43v7.65c0,.4-.07,.49-.38,.32-.24-.13-.4-.23-.4-.7,.02-3.76-.02-7.56,.02-11.27,.02-2.43,1.44-3.39,3.23-2.37s3.21,3.56,3.32,6.1c.12,2.74-.64,4.15-2.22,3.88-1.34-.23-2.55-1.31-3.58-3.61Zm2.55-5.3c-1.56-.89-2.55-.04-2.55,2.19,0,2.44,.94,4.41,2.52,5.31s2.52,0,2.52-2.34c.02-2.29-.94-4.28-2.5-5.16Z"/><path class="ap" d="M370.2,339.5c-.83-.47-1.63-.89-2.45-1.4-.33-.19-.45-.19-.38,.39,.14,1.38,.59,2.61,1.46,3.5,.97,.99,1.91,1.49,2.73,.96,.19-.13,.33-.21,.59,.17,.26,.38,.33,.56,.09,.75-.78,.69-1.75,.44-2.78-.28-2.03-1.42-3.18-4.32-2.88-7.28,.24-2.47,1.6-3.13,3.66-1.79,1.65,1.07,2.85,3.63,2.9,6.06,0,.47-.09,.55-.42,.32-.85-.48-1.7-.93-2.52-1.4Zm-.36-1.17c.71,.4,1.41,.77,2.12,1.21,.33,.19,.38,.05,.31-.39-.28-1.73-1.25-3.28-2.48-3.92-1.2-.62-2.03-.25-2.34,1.01-.09,.42-.09,.71,.36,.94,.66,.34,1.34,.76,2.03,1.15Z"/><path class="ap" d="M348.67,327.25c-.83-.47-1.63-.89-2.45-1.4-.4-.26-.45-.05-.38,.45,.24,2.14,1.34,3.87,2.88,4.44,.52,.19,1.04,.29,1.39-.11,.28-.27,.54,.17,.71,.5,.21,.42-.07,.46-.19,.56-.92,.75-2.64,.06-3.89-1.52-1.27-1.59-1.86-3.7-1.7-6.04,.14-2.02,1.11-2.94,2.57-2.48,1.56,.48,3.02,2.25,3.66,4.39,.24,.8,.31,1.58,.36,2.34,.02,.42-.09,.48-.38,.29-.85-.48-1.72-.94-2.57-1.43Zm-.33-1.16c.71,.4,1.41,.77,2.12,1.21,.36,.24,.38,.01,.31-.39-.36-1.87-1.32-3.39-2.59-3.95-1.23-.56-2.03-.12-2.26,1.18-.07,.36-.02,.59,.31,.77,.7,.37,1.41,.77,2.12,1.17Z"/><path class="ap" d="M393.4,355.48c-.64,.77-1.44,.85-2.38,.38-1.81-.9-3.18-3.41-3.37-6.23-.14-2.22,.61-3.73,1.91-3.75,1.39-.04,3.02,1.38,3.94,3.41,.54,1.18,.73,2.32,.75,3.43,.02,1.42,0,2.8,.02,4.19,0,.4-.09,.48-.38,.32s-.45-.32-.42-.77c.02-.26,.04-.55-.07-.98Zm-4.98-5.54c0,1.1,.31,2.51,1.23,3.7,.9,1.18,1.84,1.68,2.73,1.46,.97-.25,1.39-2.15,.97-4.12-.17-.83-.45-1.66-.94-2.34-.9-1.24-1.84-1.81-2.73-1.66-.92,.18-1.25,1.23-1.25,2.96Z"/><path class="ap" d="M384.16,342.43c.9,.54,1.7,1.34,2.19,2.78,.09,.29,.28,.67,0,.7-.21,.05-.4,0-.59-.47-.64-1.53-2.1-2.7-2.95-2.38-.36,.13-.49,.52-.47,1.14,.02,.58,.28,.96,.59,1.3,.45,.52,.94,.94,1.41,1.34,.49,.42,.99,.93,1.41,1.5,.97,1.32,1.06,3.24,.24,3.77-.97,.59-2.92-.53-3.87-2.2-.19-.31-.33-.66-.42-1.01-.07-.28-.21-.59,.05-.64,.19-.03,.36-.07,.54,.41,.68,1.63,2.03,2.72,3,2.47,.66-.19,.68-1.38,0-2.34-.42-.58-.9-.95-1.37-1.34-.54-.48-1.08-.88-1.58-1.57-1.04-1.43-1.11-3.47-.12-3.87,.57-.21,1.23-.04,1.93,.4Z"/><path class="ap" d="M354.99,325.8c1.2,.68,2,1.48,2.52,2.91,.12,.3,.31,.71,.05,.79-.21,.08-.42,0-.61-.52-.59-1.5-2.12-2.65-2.97-2.29-.36,.13-.45,.58-.42,1.2,.02,.55,.28,.9,.57,1.22,.45,.52,.94,.94,1.41,1.34,.49,.42,.99,.9,1.44,1.52,.97,1.35,1.06,3.31,.19,3.81-.97,.55-2.88-.53-3.84-2.22-.19-.31-.33-.66-.42-.97-.07-.28-.19-.58,.05-.64,.19-.03,.38-.05,.54,.41,.61,1.75,2.1,2.6,2.95,2.48,.33-.05,.52-.34,.54-.89,.02-.55-.21-1.06-.54-1.51-.42-.58-.9-.91-1.37-1.34-.52-.46-1.04-.89-1.53-1.54-1.13-1.41-.99-3.57-.09-3.89,.57-.18,1.18-.07,1.56,.15Z"/><path class="ap" d="M374.23,342.93c.05-.87-.07-2.01,.09-2.98,.26-1.49,.97-2.05,2.1-1.84,1.37,.27,2.85,1.96,3.47,3.91,.26,.88,.38,1.75,.38,2.55,.02,1.45,0,2.87,0,4.31,0,.44-.09,.51-.4,.34s-.4-.36-.4-.79c.02-1.39,.02-2.82,0-4.24-.02-1.18-.17-2.37-.94-3.48-1.53-2.28-3.42-2.05-3.51,.44-.07,1.49-.02,3.09-.02,4.63,0,.44-.05,.64-.42,.43s-.38-.52-.36-.87c.05-.71,.02-1.46,.02-2.39Z"/><path class="ap" d="M330.92,316.91v-3.97c0-.37,.07-.49,.36-.33,.31,.18,.4,.33,.4,.76v7.91c0,.47-.12,.46-.42,.29s-.36-.4-.36-.77c.02-1.29,.02-2.59,.02-3.89Z"/><path class="ap" d="M330.63,309.37c0-.57,.26-.82,.64-.61s.66,.81,.66,1.34-.31,.76-.66,.56c-.38-.21-.64-.73-.64-1.3Z"/></g><use width="316.03" height="313.67" transform="translate(336.87 236.04) rotate(33.19) scale(.16) skewX(33.12)" xlink:href="#c"/></g></g></g><g><path class="an" d="M302.77,23.32c5.38,2.31,10.3,5.44,15.23,8.54-13.56,10.21-27.13,20.41-40.69,30.62-5.03-2.81-10.06-5.63-15.09-8.44,4.76-3.72,9.52-7.45,14.27-11.17,3.09-2.32,6.18-4.65,9.26-6.97,5.67-4.19,11.34-8.38,17.01-12.58Z"/><path class="as" d="M262.22,54.04c5.03,2.81,10.06,5.63,15.09,8.44-.04,1.03-.08,2.06-.12,3.1-.45,.59-.9,1.18-1.35,1.77-1.84,1.08-3.69,1.14-5.63,.24-4.57-2.13-8.21-8.27-7.98-13.54Z"/><path class="ao" d="M277.32,62.48s27.12-20.41,40.69-30.62c5.28,2.73,10.46,5.62,15.4,8.94-1.75,1.34-3.49,2.7-5.25,4.03-11.68,8.83-35.23,26.85-35.23,26.85l-15.6-9.19Z"/><path class="an" d="M353.53,106.57c12.77-9.5,25.53-19.01,38.3-28.5,.92-.69,1.93-1.26,2.91-1.88,5.06,2.54,9.97,5.35,14.67,8.52-7.56,6.55-15.93,12.04-23.81,18.18-5.41,4.21-10.88,8.33-16.33,12.5-.19,.05-.37,.11-.55,.18-5.05-2.78-9.7-6.27-15.11-8.41-.09-.18-.12-.38-.08-.58Z"/><path class="ao" d="M348.85,49.51c5.05,3.03,10.09,6.06,15.14,9.09-.87,.58-1.76,1.13-2.59,1.75-12.76,9.54-25.51,19.09-38.27,28.64-5.08-2.79-10.16-5.58-15.24-8.37-.09-.22-.1-.45-.04-.68,13.67-10.14,27.33-20.29,41-30.43Z"/><path class="ac" d="M323.13,88.99c12.76-9.55,25.51-19.1,38.27-28.64,.84-.62,1.73-1.17,2.59-1.75,5.01,2.69,10.11,5.22,14.81,8.44-6.67,5.98-14.17,10.89-21.22,16.36-6.33,4.91-13.03,9.34-19.08,14.61-.17,0-.33,.03-.5,.07-4.77-3.15-9.5-6.37-14.87-8.48-.04-.21-.04-.42,0-.63Z"/><path class="an" d="M348.85,49.51c-13.67,10.14-27.33,20.29-41,30.43-5.21-2.37-10.21-5.11-14.74-8.63,11.68-8.83,23.36-17.65,35.04-26.48,1.76-1.33,3.5-2.69,5.25-4.03,5.15,2.91,10.3,5.81,15.45,8.72Z"/><path class="ag" d="M417.48,133.34c-7.87-4.6-25.1-14.85-25.1-14.85,0,0,23.59-17.94,32.73-24.78,0,2.83,0,6.41,0,7.63-.03,11.68,.02,20.6,0,32.28,0,3.67-.14,3.71-3.33,1.96-1.42-.78-2.87-1.49-4.31-2.23Z"/><path class="as" d="M293.11,71.31c4.53,3.53,9.53,6.26,14.74,8.63-.06,.23-.05,.46,.04,.68-.7,.86-.36,1.89-.48,2.84-.9,1.8-2.48,2.47-4.36,2.66-5.8-1.52-8.34-6.09-10.43-11.1,.23-1.23-.89-2.64,.49-3.72Z"/><path class="as" d="M338.01,98.09l.12,2.13c-1.96,3.7-4.29,4.37-7.8,2.2-3.74-2.31-5.66-5.93-7.11-9.89-.03-.97-.05-1.95-.08-2.92,5.36,2.11,10.1,5.33,14.87,8.48Z"/><path class="ah" d="M323.14,89.62c.03,.97,.05,1.95,.08,2.92-4.06,3.19-7.12,2.67-11.12-1.44-2.17-2.23-2.75-5.33-4.68-7.63,.12-.95-.22-1.98,.48-2.84,5.08,2.79,10.16,5.58,15.24,8.37-.03,.21-.03,.42,0,.62Z"/><path class="ah" d="M292.81,72.26c.03,.97,0,2.05-.4,2.88-4.06,3.19-7.75,2.29-11.75-1.82-2.17-2.23-4.15-7.73-3.34-10.84,5.08,2.79,10.42,6.33,15.49,9.12-.03,.21-.04,.45,0,.66Z"/><path class="ao" d="M338.32,97.64s27.12-20.41,40.69-30.62c5.28,2.73,10.46,5.62,15.4,8.94-1.75,1.34-3.49,2.7-5.25,4.03-11.68,8.83-35.23,26.85-35.23,26.85l-15.6-9.19Z"/><path class="ah" d="M353.81,107.42c.03,.97,0,2.05-.4,2.88-4.06,3.19-7.75,2.29-11.75-1.82-2.17-2.23-4.15-7.73-3.34-10.84,5.08,2.79,10.42,6.33,15.49,9.12-.03,.21-.04,.45,0,.66Z"/><path class="ao" d="M368.64,115.45s27.2-20.67,40.77-30.88c5.28,2.73,10.77,5.83,15.71,9.14-1.75,1.34-40.87,30.93-40.87,30.93l-15.6-9.19Z"/><path class="ah" d="M384.13,125.22c.03,.97,0,2.05-.4,2.88-4.06,3.19-7.75,2.29-11.75-1.82-2.17-2.23-4.15-7.73-3.34-10.84,5.08,2.79,10.42,6.33,15.49,9.12-.03,.21-.04,.45,0,.66Z"/><path class="as" d="M368.72,115.56c-.24,5.42-3.56,7.3-8,4.3-4.45-2.99-7-7.21-7.11-12.71,5.41,2.13,10.07,5.62,15.11,8.41Z"/></g></g><g id="s"><g id="t"><path class="ad" d="M116.06,648.35c7.84,9.38,7.24,21.97-1.32,30.95-9.2,9.65-21.15,13.46-33.65,16.92-12.82,3.55-36.23,.69-37.11,.56-9.41-1.4-18.31-4.31-26.56-9.06-3.71-2.13-7.25-4.62-10.21-7.73-3.18-3.35-5.8-7.07-6.8-11.51-.96-4.3,.04-10.38,.17-10.75,.22-.64,.47-1.89,.84-2.8,.48-1.2,1.05-2.36,1.7-3.48,1.23-2.11,2.75-4.04,4.46-5.78,3.46-3.51,7.59-6.28,11.9-8.62,7.16-3.89,24.05-7.4,47.11-6.17,20.38,1.09,41.04,9.34,49.47,17.45Z"/></g><g id="u"><path class="au" d="M60.72,674.35c5.87,3.45,11.47,1.99,17.05-.83,5.15-2.6,10.54-4.53,16.07-6.23,4.92-1.51,9.35-4.06,10.85-9.65,1.7,2.25-.01,4-1.12,5.52-2.16,2.95-5.1,5.3-8.62,6.18-7,1.75-13.43,4.81-19.94,7.75-2.92,1.32-5.98,1.83-9.13,1.48-2.55-.28-4.64-1.34-5.16-4.21Z"/><path class="at" d="M62.11,659.66c4.59,1.35,9.1,1.01,13.57-.6,1.1-.4,2.2-.73,2.55-2.03,5.87-.82,11.36-3.28,17.27-3.95,1.98-.22,3.88-.45,5.85,.08,2.36,.63,3.67,1.9,3.35,4.47-1.5,5.59-5.94,8.14-10.85,9.65-5.53,1.7-10.92,3.63-16.07,6.23-5.58,2.82-11.18,4.28-17.05,.83-1.15-5.05-1.64-10.03,1.39-14.69Z"/><path class="at" d="M61.91,638.15c.05,3.95,.08,7.91,.14,11.86,.02,1.25-.12,2.34-1.6,2.65-6.85,1.44-12.93,4.83-19.32,7.46-4.62,1.91-9.23,1.99-13.52-1.06-1.58-5.09-1.33-9.98,1.49-14.62,3.58,3.52,8.01,2.05,12.13,1.89,2.64-.1,4.86-1.43,4.92-4.64,5.4-.56,10.45-2.63,15.77-3.55Z"/><path class="au" d="M81.77,630.22c-1.18,8.94-2.36,17.87-3.54,26.81-.35,1.3-1.44,1.63-2.55,2.03-4.47,1.6-8.98,1.95-13.57,.6-.22-5.12,1.06-5.61-5.3-3.67-5.43,1.66-10.37,4.4-15.6,6.5-2.48,1-5.06,1.68-7.75,1.41-2.97-.29-5.37-1.44-5.85-4.82,4.3,3.04,8.9,2.97,13.52,1.06,6.38-2.64,12.47-6.02,19.32-7.46,1.49-.31,1.62-1.41,1.6-2.65-.07-3.95-.1-7.91-.14-11.86,.01-3.48,.03-6.96,.04-10.45,1.76-30.11,2.08-60.2-1.69-90.64-1.34,10.97-2.08,21.61-4.04,32.03-3.69,19.64-6.31,39.41-8.76,59.22l-1.32,13.39c-.06,3.22-2.28,4.54-4.92,4.64-4.11,.16-8.55,1.63-12.13-1.89-.23-3.76-.46-7.51-.69-11.27,.22-10.32-.77-20.61-.66-30.94,.11-10.12,1.05-20.16,3.91-29.78,1.9-6.4,.93-12.55,.83-18.8-.11-6.94-.95-13.86-1.13-20.79-.26-9.86-1.89-19.53-3.24-29.26-1.36-9.83-2.91-19.7,.51-29.46,.95,2.3,2.52,4.12,4.39,5.73,7.76,6.69,16.71,11.14,26.3,14.62,12.78,4.64,23.89,2.01,33.84-6.83-.54,10.83-1.07,21.67-1.62,32.5-.28,5.56-.33,11.12-.71,16.68-.79,11.56-.94,23.16-1.64,34.72-.77,12.68-2.06,25.3-4.51,37.81-1.35,6.88-1.96,13.9-2.91,20.85Z"/></g><g id="v"><path class="ao" d="M93.16,487.66c-9.96,8.84-21.06,11.47-33.84,6.83-9.59-3.48-18.53-7.93-26.3-14.62-1.87-1.62-3.44-3.43-4.39-5.73,.83-4.97,.54-9.98,.62-14.98,.94-3.19,.78-6.42,.36-9.65-1.21-9.34-4.97-18.05-6.83-27.21-1.16-5.7-2.99-10.46-8.42-13.19l-.31-.16c-.55-6.13,1.64-11.85,2.82-17.7,.75-3.71,1.97-7.38,3.4-10.9,2.33-5.73,6.86-7.97,12.88-6.45,3.97,1,8.13,.26,12.03,1.62-.32,3.16,1.17,5.21,3.79,6.83,3.3,2.05,6.82,3.53,10.62,4.1,2.3,.35,4.92,.95,6.73-1.47,1.27,.54,2.59,.98,3.79,1.65,2.35,1.31,4.62,1.93,7.48,1.49,4.93-.75,8.65,1.58,11.22,5.88,3.08,5.16,3.95,11.05,5.72,16.65,.87,2.75,1.52,5.57,2.31,8.35,.44,1.55,.36,2.96-.82,4.16-4.43,4.22-9.54,6.88-15.82,6.7-2.03-.06-1.98,.91-1.51,2.38,.96,2.97,1.94,5.95,2.76,8.96,2.15,7.85,5.25,15.1,12.11,20.1-.12,8.78,.28,17.56-.4,26.33Z"/><g id="w"><path class="af" d="M165.33,431.52c-2.39,6.86-7.82,10.86-13.91,13.88-9.53,4.72-19.11,9.43-28.98,13.35-9.22,3.67-18.92,5.53-28.88,2.58-6.86-5.01-9.96-12.26-12.11-20.11-.82-3.01-1.8-5.98-2.76-8.96-.47-1.47-.52-2.44,1.51-2.38,6.28,.18,11.39-2.49,15.82-6.71,.94,5.6,2.06,11.17,3.93,16.52,1.93,5.51,6.02,7.76,11.78,6.45,8.44-1.93,16.9-3.89,24.14-9.06,2.07-.39,3.35,1.24,4.95,2.01,1.11,.53,2.03,1.09,3.07-.08,2.09-2.33,4.95-2.91,7.85-3.16,4.61-.41,7.21-3.19,8.92-7.15,.41-.54,.84-1.07,1.23-1.63,.66-.93,1.18-2.29,2.58-1.89,1.23,.36,.95,1.69,1,2.72,.05,.97,.14,2.81-.14,3.62Z"/><path class="af" d="M14.06,408.96l.31,.16c5.43,2.73,7.27,7.49,8.42,13.19,1.86,9.15,5.61,17.86,6.83,27.21,.42,3.23,.58,6.46-.36,9.65-4.69-3.04-8.95-6.63-13.21-10.23-5.61-4.75-7.4-10.59-6.21-17.75,1.24-7.44,2.66-14.85,4.23-22.22Z"/><path class="ad" d="M173.24,425.16c-.48,1.34-2.05,2.34-3.25,3.22s-4.12,2.89-4.95,3.92c.77-2.42,.48-3.43,.43-4.4-.05-1.03,.23-2.36-1-2.72-1.4-.4-1.92,.96-2.58,1.89-.39,.56-.82,1.09-1.23,1.63-1.71,3.96-4.31,6.74-8.92,7.15-2.9,.25-5.76,.83-7.85,3.16-1.04,1.17-1.96,.61-3.07,.08-1.6-.77-2.88-2.4-4.95-2.01q-4.1-3.09,1.62-7.2c1.97-1.05,3.9-2.19,5.92-3.12,.58-.27,1.04-.53,1.38-.72,.29-.16,.59-.33,.88-.51,.88-.51,1.75-1.05,2.41-1.42,.19-.1,.35-.19,.47-.25,1.3-.67,.66-.36,4.93-2.61s6.87-4.59,11.95-1.67c1.8,1.03,3.62,2.03,5.41,3.09,1.05,.62,2.88,1.12,2.39,2.49Z"/><path class="aq" d="M144.79,426.04c-.34,.19-.8,.45-1.38,.72-2.02,.93-3.95,2.07-5.92,3.12-.38-1.3-1.26-2.74,.08-3.87,1.34-1.12,2.13,.84,3.31,.92,.53-1.11-.34-4.09,1.75-3.39,.35,.12,.94,.43,1.21,.8,.26,.36,1.38,1.46,.95,1.7Z"/><path class="aq" d="M148.55,423.86c-.12,.06-.28,.15-.47,.25-.78,.43-1.98,1.14-2.41,1.42-.49,.34-.79-.89-.91-1.24-.32-.85-.54-2.03,.59-2.39,1.41-.45,2.45,.95,3.2,1.96Z"/></g></g><g id="x"><path class="ai" d="M48.28,367.23c-7.31-7.61-11.44-16.57-11.38-27.23,.07-12.02,10.53-22.74,22.53-23.28,4.54-.2,9.03-.11,13.43,1.28,10.65,3.37,13.34,9.96,8,19.73-3.15-.05-6.26,.2-9.3,1.09-7.47,2.17-10.37,7.17-8.13,14.58,1.05,3.46,.58,6.89,.56,10.35,0,1.43-.91,2.02-2.06,2.45-4.45,1.66-8.97,2.29-13.64,1.02Z"/><path class="af" d="M48.28,367.23c4.67,1.27,9.19,.64,13.64-1.02,1.15-.43,2.06-1.02,2.06-2.45,.02-3.46,.49-6.89-.56-10.35-2.24-7.41,.67-12.42,8.13-14.58,3.05-.88,6.15-1.13,9.3-1.09,2.54,10.2,4.42,20.41,.03,30.61-.73,1.69-1.64,3.3-2.5,4.93-1.62,3.09-4.2,4.31-7.52,3.36-2.76-.79-4-.23-4.15,2.87-.09,1.82-.72,3.62-.4,5.49-1.81,2.42-4.42,1.82-6.73,1.47-3.8-.57-7.31-2.05-10.62-4.1-2.61-1.62-4.11-3.68-3.79-6.83,1.77,0,2.2-1.14,2.35-2.64,.19-1.9,.49-3.78,.75-5.67Z"/></g></g><g id="y"><path class="ad" d="M193.14,363.92c12.38,7.06,25.95,10.75,38.32,17.82,5.46,2.01,1.96,.48,8.28,3.39-.08,.09-.15,.18-.24,.26-4.41,3.74-8.29,3.58-13.49,.37-15.72-9.69-20.84-6.87-36.9-16-2.7-1.54-2.6-2.42,.09-3.63,1.37-.62,2.63-1.47,3.94-2.21Z"/><path class="al" d="M276.48,288.47c0,2.77-.12,5.79-.12,8.48,0,2.87-.04,5.75-.08,8.62-11.62,6.78-23.22,13.61-34.9,20.3-1.85,1.06-2.78,2.13-2.65,4.33,.17,2.9-.08,5.82,.09,8.72,.18,3.12-1.05,2.99-3.2,1.74-2.67-1.56-5.15-3.53-8.26-4.24-2.08-4.67-4.38-9.19-8.79-12.17-3.77-2.54-6-1.34-9.69,1.34-1.97,.06-3.7-1.43-5.3-2.32-4.3-2.4-8.78-4.78-13.08-7.17-3.68-1.51-2.96-5.41-3.42-8.67-1.07-7.63,1.96-11.71,8.72-15.22,13.78-7.15,27.06-15.28,40.47-23.13,2.16-1.27,3.68-1.4,5.94-.07,11.09,6.52,23.1,13.1,34.28,19.46Z"/><path class="al" d="M190.84,316.19l.36,45.32c.01,1.43,.86,2.72,2.17,3.3l45.73,20.33-.22-35.29-.25-18.95-28.1-9.97-19.68-4.74Z"/><path class="ak" d="M190.55,316.13c3.11,.71,42,17.9,44.68,19.46,2.15,1.25,3.38,1.37,3.2-1.74-.16-2.9,.34-.99,.16-3.89-.13-2.19,.81-3.27,2.65-4.33,11.68-6.69,23.28-13.52,34.9-20.3,.05,19.97,.1,39.93,.15,59.9-10.89,6.2-26.61,13.45-37.5,19.65-.75-7.73-.62-20.22-.62-26.03,0-5.81,0-11.14,.02-12.01s-.35-5.76-4-7.09c-2.23-.81-41.16-17.91-43.27-19.08-.28-.87-.1-3.68-.37-4.55Z"/></g><g id="a`"><path class="al" d="M186.77,333.05c-.32,.14-.61,.34-.92,.5-.69,.36-1.4,.68-2.14,.94-1.55,.56-3.02,1.23-4.47,2.01-2.93,1.58-5.69,3.45-8.59,5.09-.74,.42-1.48,.82-2.24,1.2-5.03,2.5-9.73,4.95-8.09,11.96,.39,1.67-.29,2.35-2.14,1.24-4.77-2.87-9.57-5.71-14.51-8.25-4.28-2.2-7.99-5.52-12.85-6.59-4.33-3-4.54-8.49-2.09-11.09,1.39-1.49,4.39-3.19,5.17-3.65,9.22-5.33,14.78-9.02,23.94-14.45,1.73-1.03,2.98-1.01,4.68,0,3.2,1.89,6.42,3.76,9.64,5.62,3.22,1.86,6.44,3.72,9.67,5.57,2.93,1.69,5.96,3.27,8.76,5.16,.74,.5,1.54,.87,2.27,1.38-1.52,1.22-3.22,2.22-5.03,2.97-.35,.14-.72,.25-1.07,.4Z"/><path class="ak" d="M130.83,341.13c4.85,1.07,8.57,4.39,12.85,6.59,4.95,2.54,9.75,5.38,14.51,8.25,1.85,1.11,2.53,.44,2.14-1.24-1.64-7.01,3.06-9.45,8.09-11.96,8.18-4.78,19.12-11.04,24.46-13.1,.35,4.5,1.06,19.23,.88,28.02-.07,3.41-.03,5.71-.57,6.5-1.92,2.79-19.57,12.76-13.49,9.18,6.08-3.58-12.88,7.16-19.33,10.75,0-7.32-.06-14.64,.05-21.95,.03-2.09-.56-3.47-2.43-4.52-6.13-3.43-12.28-6.86-18.26-10.55-2.99-1.84-6.6-2.83-8.77-5.9l-.13-.06Z"/><path class="al" d="M130.95,341.19c2.17,3.07,5.78,4.06,8.77,5.9,5.98,3.69,12.13,7.12,18.26,10.55,1.87,1.05,2.46,2.43,2.43,4.52-.11,7.32-.05,14.63-.05,21.95-.17,.16-.37,.26-.61,.29-9.81-5.67-19.62-11.35-29.43-17.02,0-7.65-.02-15.3,.04-22.96,0-1.08-.55-2.33,.58-3.23Z"/><path class="ad" d="M130.33,367.38c9.81,5.67,19.62,11.35,29.43,17.02-2.54,2.52-4.95,2.72-8.21,.72-8.45-5.18-17.16-9.94-25.99-14.99,1.73-1.24,3.09-2.25,4.77-2.75Z"/></g><g id="aa"><path class="ad" d="M452.05,186.26c.29-2.61-.54-5.76,.56-8.8,.37-1.02,.84-2.15,1.99-2.08,1.46,.09,1.18,1.47,1.18,2.46,.03,4.39,.02,8.78,0,13.17,0,.68-.01,1.44-.3,2.02-.52,1.04-.55,2.85-2.3,2.51-1.52-.29-1.09-1.82-1.12-2.91-.05-1.96-.01-3.93-.01-6.37Z"/><path class="ad" d="M455.8,159.3c-.29,2.51,.52,5.56-.47,8.52-.34,1.01-.63,2.16-2,1.98-1.43-.2-1.27-1.45-1.27-2.48-.01-4.31-.02-8.61,.01-12.92,0-.68,.17-1.38,.35-2.04,.34-1.22,.69-2.93,2.16-2.71,1.48,.23,1.2,1.98,1.21,3.23,.02,1.98,0,3.96,0,6.42Z"/></g><g id="ab"><use width="41.77" height="75.64" transform="translate(490.02 560.87) rotate(-5.78) scale(.18) skewX(-5.85)" xlink:href="#a"/><use width="41.77" height="75.64" transform="translate(471.23 515.6) rotate(-5.78) scale(.14) skewX(-5.85)" xlink:href="#a"/><use width="41.77" height="75.64" transform="translate(203.91 340.89) rotate(-13.32) scale(.4 .36) skewX(-12.3)" xlink:href="#a"/><use width="41.77" height="75.64" transform="translate(139.75 355.93) rotate(-4.86) scale(.19) skewX(-4.91)" xlink:href="#a"/></g></g></g></g></svg>