<?xml version="1.0" encoding="UTF-8"?><svg xmlns="http://www.w3.org/2000/svg" viewBox="0 0 355.48 418.85"><defs><style>.f{fill:#e1062c;}.g{fill:#dc1336;}.h{fill:#e1062b;}</style></defs><g id="a"/><g id="b"><g id="c"><g id="d"><path class="f" d="M335.68,220.33v90.76c0,2.01-.45,2.57-2.57,2.57-19.44-.11-38.9-.11-58.46,0-2.01,0-2.57-.56-2.57-2.57,0-48.74,.11-97.46,0-146.2,0-13.75-1.57-27.39-5.7-40.57-3.69-11.74-9.83-21.91-18.34-30.85-10.06-10.62-21.24-19.44-34.77-25.16-9.16-3.91-18.88-6.03-28.85-6.59-11.74-.67-23.36,.11-34.65,3.69-11.41,3.58-21.69,9.27-30.74,16.99-9.5,8.05-18.23,16.77-24.26,27.83-5.92,10.73-8.82,22.46-10.51,34.54-1.35,10.06-1.35,20.23-1.35,30.4v135.47c0,3.24,.56,3.02-3.02,3.02H22.14c-1.57,0-2.45-.11-2.45-2.12,.22-49.62-.34-99.26,.45-148.88,.11-9.83,0-19.78,1.35-29.5,.9-7.16,2.68-14.31,5.04-21.13,3.69-10.62,7.27-21.35,12.96-31.19,15.64-27.16,37-48.63,64.83-63.15C130.91,3.83,159.53-1.75,189.59,.48c20.01,1.46,39.11,6.71,57.34,15.1,11.95,5.47,22.46,12.96,32.41,21.47,17.33,14.76,31.41,32.2,40.91,52.97,5.25,11.41,9.16,23.36,12.06,35.76,2.9,12.74,2.34,25.7,2.79,38.46,.8,20.01,.58,40.12,.58,56.1Z"/><path class="h" d="M146.68,232.64v-78.58c0-1.89,.45-2.45,2.34-2.34,19.22,.11,38.46,.11,57.79,0,1.68,0,2.12,.45,2.12,2.12v157.5c0,1.78-.34,2.34-2.23,2.34-19.22-.11-38.34-.11-57.56,0-2.01,0-2.45-.56-2.45-2.57,0-26.17,0-52.32,0-78.47Z"/></g><g id="e"><path class="g" d="M3.92,394.69c0,1.35-.56,1.68-1.68,1.57-1.01,0-2.12,.11-2.12-1.46,.22-6.37-.54-12.74,.25-19,.67-5.36,3.58-8.94,8.82-10.17,5.04-1.12,9.95-.56,13.52,3.8,.67,.9,1.01,1.57,2.12,.22,3.13-4.03,8.94-5.58,14.09-4.03,5.13,1.57,8.28,5.36,8.6,10.96,.34,6.03,.11,12.06,.22,18.11,0,1.46-.9,1.46-1.89,1.46s-1.78-.11-1.78-1.46v-14.87c0-2.23-.11-4.59-1.12-6.59-1.89-3.91-5.7-5.36-10.85-4.36-3.69,.79-6.14,3.8-6.26,8.17-.11,5.81-.11,11.52,0,17.33,0,1.35-.34,1.89-1.78,2.01-1.46,0-1.89-.45-1.89-1.89,.11-5.04,.11-10.06,0-15.1,0-3.47-.67-6.82-3.8-9.05-3.02-2.12-6.37-2.01-9.61-.79-3.13,1.24-4.48,3.91-4.7,7.04-.22,3.02-.05,9-.05,9,0,0-.08,6.19-.08,9.09Z"/><path class="g" d="M112.47,370.45v-24.93c0-1.78,.67-2.01,2.23-2.01,1.57,0,1.46,1.01,1.46,2.12v36.32c-.11,6.59-3.91,12.18-9.72,14.2-6.59,2.34-13.52,.67-17.89-4.03-6.14-6.71-5.7-23.02,7.16-26.26,5.81-1.46,11.29-.67,15.64,4.14,.22,.22,1.08,1.36,1.08,1.36l.05-.91Zm-24.03,10.62c-.11,7.83,4.48,12.74,11.74,12.74,7.38,.11,12.18-4.81,12.29-12.4,.11-7.83-4.59-12.85-11.95-12.85-7.38-.02-11.97,4.8-12.08,12.51Z"/><path class="g" d="M192.72,391.46v25.6c0,1.35-.34,1.78-1.78,1.78-1.12,0-1.89,0-1.89-1.57,.11-12.63-.11-25.27,.11-37.78,.11-8.17,6.82-14.09,15.31-14.09,8.6,0,15.21,5.81,15.75,14.09,.56,8.94-3.02,15.1-10.51,17.21-6.37,1.8-12.06,.45-16.99-5.25Zm12.08-22.59c-7.38,0-12.06,4.7-12.06,12.18,0,8.17,4.48,12.96,11.95,12.96,7.38,0,11.95-4.81,11.95-12.63,.11-7.7-4.48-12.51-11.84-12.51Z"/><path class="g" d="M241.35,382.18c-3.91,0-7.72,.11-11.63,0-1.57,0-2.12,.22-1.78,2.01,.67,4.36,2.79,7.6,6.93,8.94,4.59,1.46,9.05,1.35,12.96-2.01,.9-.79,1.57-1.35,2.79-.56,1.24,.79,1.57,1.24,.45,2.34-3.69,3.8-8.28,4.81-13.19,4.36-9.61-.9-15.1-8.39-13.64-18.88,1.12-8.71,7.6-13.52,17.33-12.96,7.83,.45,13.52,6.71,13.75,14.76,0,1.57-.45,2.01-2.01,1.89-4.03,.02-8.05,.11-11.97,.11Zm-1.68-3.24c3.35,0,6.71-.11,10.06,0,1.57,0,1.78-.56,1.46-1.89-1.35-5.25-5.92-8.6-11.74-8.39-5.7,.22-9.61,3.02-11.07,7.83-.45,1.57-.45,2.57,1.68,2.45,3.13-.11,6.37,0,9.61,0Z"/><path class="g" d="M139.3,382.18c-3.91,0-7.72,.11-11.63,0-1.89-.11-2.12,.67-1.78,2.23,1.12,6.71,6.37,10.4,13.64,9.39,2.45-.34,4.93-1.01,6.59-3.02,1.35-1.46,2.57-.45,3.35,.34,1.01,1.01-.34,1.68-.9,2.23-4.36,4.25-12.51,5.25-18.45,2.34-6.03-2.9-8.82-8.82-8.05-16.99,.67-7.04,5.25-11.95,12.18-13.19,7.38-1.35,14.31,1.78,17.33,7.72,1.12,2.23,1.46,4.7,1.68,7.16,.11,1.35-.45,1.78-1.78,1.68-4.01,.02-8.15,.11-12.18,.11Zm-1.57-3.24c3.35,0,6.71-.11,10.06,0,1.68,.11,1.78-.67,1.46-1.89-1.68-5.58-6.26-8.82-12.29-8.28-5.81,.45-9.61,3.47-10.73,8.28-.34,1.35-.11,2.01,1.46,2.01,3.34-.11,6.69-.11,10.04-.11Z"/><path class="g" d="M351.34,391.46c-3.02,3.8-6.82,5.58-11.29,5.81-8.6,.45-15.1-5.36-15.98-14.42-.67-7.16,2.9-13.64,9.05-16.2,6.59-2.79,14.31-1.12,18.67,3.91,2.57,2.9,3.47,6.37,3.58,10.06,.11,4.7,0,9.39,.11,13.97,0,1.35-.45,1.78-1.78,1.78-1.35,0-2.12-.22-2.01-1.78,.08-.9,.19-1.91-.35-3.13Zm-23.6-9.06c0,3.69,1.46,7.83,5.81,10.06,4.25,2.23,8.71,2.12,12.96-.34,4.59-2.68,6.59-9.83,4.59-15.64-.79-2.45-2.12-4.7-4.48-6.03-4.25-2.45-8.71-2.57-12.96-.34-4.35,2.34-5.92,6.48-5.92,12.29Z"/><path class="g" d="M307.51,365.41c4.25,.11,8.05,1.24,10.4,5.13,.45,.79,1.35,1.68,0,2.34-1.01,.56-1.89,.79-2.79-.45-3.02-3.91-9.95-5.04-13.97-2.34-1.68,1.12-2.34,2.68-2.23,4.7,.11,1.89,1.35,2.68,2.79,3.24,2.12,.9,4.48,1.35,6.71,1.78,2.34,.45,4.7,1.24,6.71,2.34,4.59,2.57,5.04,8.82,1.12,12.18-4.59,3.8-13.86,3.8-18.34,0-.9-.67-1.57-1.57-2.01-2.57-.34-.79-1.01-1.57,.22-2.23,.9-.45,1.68-.9,2.57,.34,3.24,4.14,9.61,5.25,14.2,2.57,3.13-1.89,3.24-5.92,0-7.83-2.01-1.12-4.25-1.46-6.48-1.89-2.57-.56-5.13-.9-7.49-2.23-4.93-2.79-5.25-9.5-.56-12.74,2.68-1.78,5.81-2.45,9.16-2.34Z"/><path class="g" d="M169.25,365.3c5.7,0,9.5,1.12,11.95,4.93,.56,.79,1.46,1.78,.22,2.57-1.01,.67-2.01,.79-2.9-.56-2.79-3.91-10.06-4.81-14.09-2.01-1.68,1.12-2.12,2.79-2.01,4.81,.11,1.78,1.35,2.45,2.68,3.02,2.12,.9,4.48,1.35,6.71,1.78,2.34,.45,4.7,1.12,6.82,2.34,4.59,2.68,5.04,9.05,.9,12.4-4.59,3.69-13.64,3.69-18.23-.11-.9-.67-1.57-1.57-2.01-2.45-.34-.79-.9-1.57,.22-2.23,.9-.45,1.78-.9,2.57,.34,2.9,4.7,9.95,4.7,13.97,2.68,1.57-.79,2.45-2.12,2.57-4.03,.11-1.89-1.01-3.13-2.57-4.03-2.01-1.12-4.25-1.35-6.48-1.89-2.45-.56-4.93-1.01-7.27-2.23-5.36-2.57-4.7-10.06-.45-12.85,2.7-1.68,5.6-2.47,7.38-2.47Z"/><path class="g" d="M260.46,385.98c.22-3.02-.34-6.59,.45-10.17,1.24-5.47,4.59-8.71,9.95-10.17,6.48-1.68,13.52,1.12,16.43,6.48,1.24,2.45,1.78,5.13,1.78,7.83,.11,4.81,0,9.61,0,14.42,0,1.46-.45,1.89-1.89,1.89-1.46,0-1.89-.45-1.89-1.89,.11-4.7,.11-9.5,0-14.2-.11-3.91-.79-7.6-4.48-9.83-7.27-4.7-16.2-.34-16.65,8.17-.34,5.13-.11,10.4-.11,15.53,0,1.46-.22,2.23-2.01,2.23-1.78,0-1.78-1.01-1.68-2.23,.22-2.45,.11-4.93,.11-8.05Z"/><path class="g" d="M55.14,381.41v-13.3c0-1.24,.34-1.78,1.68-1.78,1.46,0,1.89,.34,1.89,1.78v26.49c0,1.57-.56,1.78-2.01,1.78s-1.68-.67-1.68-1.89c.11-4.36,.11-8.73,.11-13.08Z"/><path class="g" d="M53.79,356.7c0-1.89,1.24-3.24,3.02-3.24s3.13,1.46,3.13,3.24-1.46,3.13-3.13,3.13c-1.78,0-3.02-1.24-3.02-3.13Z"/></g></g></g></svg>