<?xml version="1.0" encoding="UTF-8"?><svg xmlns="http://www.w3.org/2000/svg" viewBox="0 0 163.32 223.36"><defs><style>.g{fill:#1d1d1b;}</style></defs><g id="a"/><g id="b"><g id="c"><g id="d"><path id="e" class="g" d="M162.89,57.8c-.68-1.54-2.09-2.63-3.75-2.91l-24.32-4.06c-1.69-.28-3.38,.33-4.51,1.56l5.35-27.72c.52-2.71-1.25-5.33-3.96-5.86l-21.42-4.14c-1.3-.25-2.65,.02-3.75,.77s-1.86,1.89-2.11,3.19l-1.55,8.03-2.82-18.28c-.32-2.09-1.92-3.75-3.99-4.15L74.65,.09c-1.6-.31-3.25,.18-4.42,1.31-1.17,1.13-1.72,2.76-1.47,4.36l16.64,107.85-17.52,11.83-3.4-2.3v-51.37c0-7.45-3.8-14.37-9.9-18.42v-10.74c0-5.24-4.26-9.5-9.5-9.5h-12.24c-5.24,0-9.5,4.26-9.5,9.5v10.74c-6.1,4.05-9.9,10.98-9.9,18.42v45.21l-5.64-3.81c-1.53-1.03-3.51-1.14-5.15-.27-1.63,.87-2.65,2.57-2.65,4.42v101.04c0,2.76,2.24,5,5,5h125.76c2.76,0,5-2.24,5-5V117.32c0-1.85-1.02-3.55-2.65-4.42-.82-.43-1.72-.62-2.61-.58l32.03-49.8c.91-1.41,1.05-3.19,.37-4.73ZM113.3,25.44l11.6,2.24-18.45,95.51-10.64-7.19L113.3,25.44Zm-22.59-12.06l6.54,42.41-5.93,30.69L79.72,11.26l10.99,2.12ZM30.45,60.8c1.76-.82,2.89-2.59,2.89-4.53v-13.15h11.24v13.15c0,1.95,1.13,3.71,2.89,4.53,4.26,1.98,7.01,6.29,7.01,10.98v18.22H23.44v-18.22c0-4.69,2.75-9,7.01-10.98Zm-7.01,39.2h31.04v16.39l-4.76-3.21c-.85-.57-1.82-.86-2.8-.86-.98,0-1.96,.29-2.8,.86l-18.16,12.27-2.52-1.7v-23.74Zm102.32,113.36H10V126.73l5.64,3.81h0l7.52,5.08c1.48,1,3.36,1.12,4.94,.37,.23-.11,.45-.23,.66-.37l18.16-12.27,9.76,6.6s.02,.01,.03,.02l8.37,5.65c1.69,1.14,3.91,1.14,5.6,0l18.16-12.27,18.16,12.27h0c.2,.14,.41,.25,.63,.36,.05,.02,.1,.04,.15,.07,.16,.07,.32,.13,.49,.19,.07,.02,.14,.04,.21,.06,.16,.05,.33,.08,.5,.11,.06,0,.12,.02,.18,.03,.22,.03,.43,.05,.65,.05h.03c.11,0,.21-.02,.32-.03,.14-.01,.29-.01,.43-.04,.09-.01,.18-.04,.27-.06,.15-.03,.31-.06,.46-.11,.1-.03,.19-.08,.28-.11,.14-.05,.28-.1,.42-.17,.23-.11,.45-.25,.67-.4l4.16-2.81c.06-.04,.13-.08,.19-.13l8.72-5.89v86.62Zm-6.96-101.33l6.46-33.43,11.17-17.37,13.58,2.27-31.21,48.53Z"/><g id="f"><path class="g" d="M94.61,170.55v-.2l-.02-.11c-.05-.63-.11-1.24-.19-1.83-.63-4.46-2.4-8.72-5.12-12.31l-.04-.06-.04-.04c-3.42-4.5-8.28-7.85-13.73-9.46-.03-.01-.13-.04-.13-.04l-.1-.02c-2.35-.69-4.83-1.04-7.35-1.04-7.15,0-13.88,2.79-18.94,7.85-5.06,5.06-7.85,11.79-7.85,18.94v32.91h12v-32.91c0-3.95,1.54-7.66,4.33-10.46s6.51-4.33,10.46-4.33c1.38,0,2.71,.18,4.03,.56h.03l.07,.03c3.03,.87,5.76,2.75,7.67,5.29,1.75,2.31,2.77,5.05,2.95,7.96v.12c.03,.28,.04,.55,.04,.83v32.91h12v-32.91c0-.64-.02-1.21-.06-1.66Z"/><rect class="g" x="61.88" y="174.27" width="12" height="30.85"/></g></g></g></g></svg>