<?xml version="1.0" encoding="UTF-8"?><svg xmlns="http://www.w3.org/2000/svg" viewBox="0 0 80 80"><g id="a"/><g id="b"><g id="c"><g id="d"><path d="M0,80c.02-4.68,.01-9.31,0-13.95-.01-8.04-.02-16.35,.11-24.51v-1.04c.03-2.17,.05-4.41,.34-6.55,.22-1.73,.64-3.52,1.26-5.34l.17-.48c.87-2.53,1.77-5.15,3.12-7.5C9.06,13.53,14.58,8.1,21.42,4.51,27.12,1.52,33.3,0,39.78,0c1.06,0,2.15,.04,3.23,.12,4.9,.36,9.79,1.66,14.53,3.86,2.7,1.24,5.3,2.98,8.18,5.46,4.6,3.94,8.08,8.49,10.36,13.5,1.29,2.82,2.29,5.81,3.07,9.16,.56,2.47,.6,5.07,.65,7.58,.01,.76,.03,1.52,.05,2.28,.17,4.3,.16,8.57,.15,12.35v25.69c-2.44-.01-4.88-.02-7.32-.02s-4.89,0-7.34,.02c0-4.16,0-8.31,0-12.47,0-8.47,.01-16.95,0-25.43,0-4.02-.5-7.57-1.52-10.85-.99-3.17-2.61-5.92-4.95-8.4-2.97-3.15-6.01-5.37-9.3-6.77-2.39-1.03-5.01-1.63-7.77-1.79-.66-.04-1.31-.06-1.97-.06-2.69,0-5.09,.35-7.33,1.06-3.05,.96-5.84,2.51-8.27,4.61-2.09,1.79-4.72,4.26-6.49,7.52-1.4,2.55-2.3,5.52-2.82,9.32-.36,2.69-.36,5.42-.36,8.06v35.21H0Z"/><path d="M32.87,39.58c2.39,.01,4.78,.02,7.17,.02s4.75,0,7.13-.02v40.42c-2.38-.01-4.75-.02-7.12-.02s-4.79,0-7.18,.02V39.58Z"/></g></g></g></svg>